<svg xmlns="http://www.w3.org/2000/svg" width="22" height="22" viewBox="0 0 22 22"><defs><radialGradient id="n94ma" cx="6.54" cy="20.81" r="20.64" gradientUnits="userSpaceOnUse"><stop offset="0" stop-color="#ffcf5a"/><stop offset=".23" stop-color="#ff9859"/><stop offset=".69" stop-color="#b82dcf"/><stop offset="1" stop-color="#683cea"/></radialGradient></defs><g><g><g><path fill="url(#n94ma)" d="M16.5 0h-11C2.475 0 0 2.474 0 5.5v11C0 19.525 2.475 22 5.5 22h11c3.025 0 5.5-2.475 5.5-5.5v-11C22 2.474 19.525 0 16.5 0z"/></g><g><g><g><g><g><path fill="#fff" d="M14.175 2.68c2.822 0 5.11 2.262 5.11 5.053v6.293c0 2.79-2.288 5.052-5.11 5.052H7.81c-2.822 0-5.11-2.262-5.11-5.052V7.733c0-2.79 2.288-5.053 5.11-5.053zm3.517 5.656c0-2.254-1.85-4.082-4.128-4.082H8.42c-2.28 0-4.129 1.828-4.129 4.082v5.086c0 2.255 1.849 4.082 4.129 4.082h5.143c2.279 0 4.128-1.827 4.128-4.082z"/></g><g><path fill="#fff" d="M11.219 6.59c2.412 0 4.368 1.933 4.368 4.319 0 2.385-1.956 4.32-4.368 4.32-2.413 0-4.369-1.935-4.369-4.32 0-2.386 1.956-4.319 4.369-4.319m0 6.918c1.45 0 2.628-1.164 2.628-2.599 0-1.436-1.177-2.599-2.628-2.599-1.453 0-2.629 1.163-2.629 2.599 0 1.435 1.176 2.599 2.629 2.599"/></g><g><path fill="#fff" d="M16.392 6.519c0 .607-.499 1.098-1.112 1.098-.613 0-1.11-.491-1.11-1.098 0-.606.497-1.099 1.11-1.099.613 0 1.112.493 1.112 1.099"/></g></g></g></g></g></g></g></svg>