<svg xmlns="http://www.w3.org/2000/svg" width="25" height="25" viewBox="0 0 25 25"><g><g><g><path fill="#9e856f" d="M9.221 5.247a5.227 5.227 0 0 0-3.105 3.105.471.471 0 1 1-.888-.321A6.185 6.185 0 0 1 8.9 4.358a.473.473 0 0 1 .321.888z"/></g><g><path fill="#9e856f" d="M7.433 1.084a10.613 10.613 0 0 0-6.35 6.35.56.56 0 0 1-.716.332.558.558 0 0 1-.333-.716A11.725 11.725 0 0 1 7.051.034a.558.558 0 0 1 .382 1.05z"/></g><g><path fill="#9e856f" d="M11.002 9.435c-.331.118-.589.376-.707.707a.395.395 0 0 1-.742-.265c.198-.554.63-.986 1.184-1.184a.394.394 0 1 1 .265.742z"/></g><g><path fill="#9e856f" d="M2.009 20.929c.042-.38.232-.716.533-.95l4.434-3.427a2.325 2.325 0 0 1 2.593-.174l.814.47a1.408 1.408 0 0 0 1.566-.102 27.565 27.565 0 0 0 2.583-2.252 26.946 26.946 0 0 0 2.218-2.545 1.408 1.408 0 0 0 .1-1.563l-.473-.818a2.326 2.326 0 0 1 .176-2.593l3.426-4.433c.233-.301.57-.492.95-.533.377-.042.75.067 1.045.31 1.097.907 1.788 1.502 2.056 1.771.68.68.97 1.572.97 2.983 0 1.646-3.02 7.768-6.658 11.254C14.842 21.98 8.719 25 7.074 25c-1.412 0-2.304-.29-2.984-.97-.27-.27-.866-.961-1.77-2.056a1.39 1.39 0 0 1-.311-1.045z"/></g></g></g></svg>