<svg xmlns="http://www.w3.org/2000/svg" width="137" height="43" viewBox="0 0 137 43">
    <g fill="none" fill-rule="evenodd">
        <path fill="#FFF" d="M-92-9h320v568H-92z"/>
        <path fill="#F1E2CC" fill-rule="nonzero" d="M-92 51h320v-62H-92z" opacity=".5"/>
        <path fill="#CCAF96" d="M11.927 6.254a42.687 42.687 0 0 1 11.13-.292c2.09.22 4.188-.578 5.513-2.201A5.493 5.493 0 0 0 29.808.707c4.328 1.296 4.73 9.219-.121 10.1.685 3.585.418 7.167-.8 10.749H8.317c-1.22-3.582-1.486-7.164-.802-10.748h-.001c-4.29-3.234-3.766-7.935-3.232-9.394 3.673-.242 5.637 1.908 7.645 4.84"/>
        <path fill="#A78B76" d="M21.591 22.263c0 .924-1.339 1.673-2.99 1.673-1.652 0-2.99-.75-2.99-1.673s1.338-1.673 2.99-1.673c1.651 0 2.99.75 2.99 1.673"/>
        <path fill="#CCAF96" d="M21.889 38.95c-2.194.17-4.383.17-6.577 0a2.86 2.86 0 0 1-2.822 3.253h-.018c-2.453-.016-4.53-.711-4.914-3.128-.002-.005-.002-.012-.002-.017-.528-3.324-.547-7.164-.062-10.527.14-.974.324-1.908.55-2.776h21.115c.226.868.407 1.8.548 2.77.485 3.367.466 7.212-.063 10.54l-.001.01c-.385 2.417-2.46 3.114-4.913 3.128h-.02a2.86 2.86 0 0 1-2.821-3.253"/>
        <path fill="#A78B76" d="M28.213 21.33c1.173-3.449 1.434-6.945.775-10.39v-.002-.002c-.005-.024-.004-.046-.006-.068-.002-.024-.007-.049-.006-.073 0-.023.005-.044.008-.066.002-.024.003-.049.008-.073.005-.02.013-.04.02-.06.007-.024.013-.047.022-.069l.03-.055c.012-.022.023-.044.036-.064.012-.017.027-.031.04-.047.016-.02.03-.04.049-.057.014-.014.031-.026.047-.039.02-.016.038-.033.059-.047.018-.012.04-.021.06-.03.02-.013.041-.025.064-.035.022-.008.045-.013.068-.02.023-.007.044-.015.067-.02h.005c2.53-.46 2.868-3.001 2.91-3.77.099-1.733-.6-3.725-2.106-4.624-.075.316-.176.621-.298.918.682 1.826 2.076 4.277.17 6.049-.665.618-2.042.82-1.978 1.569.245 2.873-2.024 11.028-6.16 11.787l5.715.5.555-.508a.7.7 0 0 1-.154-.705"/>
        <path fill="#EFDFC9" d="M8.674 25.433a.7.7 0 0 1 .06.498c-.218.83-.397 1.739-.536 2.7-.477 3.308-.455 7.069.06 10.317a.128.128 0 0 1 .006.037c.127.775.495 1.727 1.966 2.206-1.86-3.92-.856-13.569.105-16.129l-1.66.37zM4.281 3.389c3.257-.215 4.827 1.723 6.54 4.207.411.595 1.126.905 1.844.802 3.396-.49 7.069-.81 10.392-.462 2.09.22 4.188-.578 5.513-2.201a5.489 5.489 0 0 0 1.238-3.053c1.97.59 3.125 2.55 3.344 4.596.272-2.481-.92-5.285-3.344-6.011a5.491 5.491 0 0 1-1.238 3.054c-1.325 1.623-3.422 2.42-5.513 2.2a42.661 42.661 0 0 0-11.13.293c-2.008-2.932-3.972-5.082-7.646-4.84-.216.591-.43 1.713-.324 3.055.057-.702.19-1.274.324-1.64M7.514 12.782c-.069-.051-.132-.104-.198-.157a20.364 20.364 0 0 0-.156 3.327c.036-1.056.154-2.113.356-3.17h-.002zM29.687 12.782c.202 1.057.32 2.114.356 3.17a20.384 20.384 0 0 0-.14-3.215 4.055 4.055 0 0 1-.216.045"/>
        <path fill="#FEFEFE" d="M29.808.707a5.491 5.491 0 0 1-1.238 3.054c-1.325 1.623-3.422 2.42-5.513 2.2-.364-.038-.73-.07-1.094-.098-.546 1.287-.878 2.463-.878 3.279 0 3.07 2.504 5.559 5.593 5.559.867 0 2.076-.253 3.366-.685a20.617 20.617 0 0 0-.357-3.208c4.851-.882 4.449-8.805.121-10.1M23.295 28.937c0 3.19-2.102 5.775-4.695 5.775-2.592 0-4.694-2.586-4.694-5.775 0-3.19 2.102-5.776 4.694-5.776 2.593 0 4.695 2.586 4.695 5.776"/>
        <path fill="#A78B76" d="M29.33 26.462h-6.486a5.81 5.81 0 0 0-.325-.707h6.64c.06.232.117.467.17.707M14.683 25.755a6.04 6.04 0 0 0-.324.707H9.95c.055-.256.112-.493.17-.707h4.564z"/>
        <path fill="#D9CBB8" d="M10.12 25.755c-.059.214-.116.451-.17.707H7.946l.275-.707h1.898z"/>
        <path fill="#CCAF96" d="M7.556 39.057l-.115.018c-5.917-1.18-3.444-8.546 0-10.551l.053.007c-.486 3.362-.466 7.203.062 10.526"/>
        <path fill="#EFDFC9" d="M27.273 16.075c0 1.179-1.023 2.144-2.454 2.144-2.394 0-2.616-2.342-6.219-2.342-3.601 0-3.824 2.342-6.218 2.342-1.43 0-2.454-.965-2.454-2.144l-.12.986c0 1.18 1.616 3.33 3.047 3.33 2.046 0 3.005-2.343 5.745-2.343 2.838 0 3.7 2.343 5.746 2.343 1.43 0 3.047-2.15 3.047-3.33l-.12-.986z"/>
        <path fill="#A78B76" d="M29.72 28.524c3.443 2.005 5.915 9.37 0 10.551l-.075-.01c.528-3.328.548-7.173.061-10.54l.013-.001z"/>
        <path fill="#EFDFC9" d="M6.666 31s.296-.956.38-1.311c-1.52 1.344-2.76 3.875-2.404 5.982.175 1.042.732 1.804 1.656 2.279-1.459-2.288-.25-5.186.368-6.95"/>
        <path fill="#5A3C2B" d="M13.158 12.906a.711.711 0 0 1-.503-.207 1.158 1.158 0 0 0-1.629 0 .716.716 0 0 1-1.006 0 .705.705 0 0 1 0-1 2.565 2.565 0 0 1 1.821-.75c.688 0 1.334.266 1.82.75a.704.704 0 0 1 0 1 .711.711 0 0 1-.503.207M26.678 12.906a.711.711 0 0 1-.503-.207 1.158 1.158 0 0 0-1.63 0 .716.716 0 0 1-1.005 0 .704.704 0 0 1 0-1 2.565 2.565 0 0 1 1.82-.75c.688 0 1.334.266 1.82.75a.705.705 0 0 1-.502 1.207M12.553 42.91h-.062a.71.71 0 0 1-.711-.707.71.71 0 0 1 .71-.708h.063a.71.71 0 0 1 .712.708.71.71 0 0 1-.712.707"/>
        <path fill="#5A3C2B" d="M30.013.03a.716.716 0 0 0-.604.092.707.707 0 0 0-.31.525 4.8 4.8 0 0 1-1.081 2.668c-1.157 1.417-2.983 2.144-4.886 1.944a43.583 43.583 0 0 0-10.87.23C10.426 2.869 8.241.444 4.233.709a.711.711 0 0 0-.621.463c-.59 1.611-1.13 6.45 3.126 9.927a21.159 21.159 0 0 0 .052 7.428c.2 1.087.482 2.175.85 3.255a.712.712 0 0 0 1.349-.452 21.349 21.349 0 0 1-.98-4.242 19.684 19.684 0 0 1 .204-6.147c.002-.007.002-.013.002-.02l.007-.056v-.01-.029a.597.597 0 0 0-.01-.138c-.002-.012-.003-.025-.006-.037a.604.604 0 0 0-.054-.152c-.004-.01-.01-.02-.016-.031l-.011-.02-.01-.016c-.014-.023-.031-.043-.048-.064l-.022-.029a.658.658 0 0 0-.103-.095A8.004 8.004 0 0 1 4.82 2.103h.027c2.82 0 4.489 1.625 6.493 4.55.192.279.382.564.576.854a.714.714 0 0 0 .986.199c.305-.2.4-.595.237-.911a42.142 42.142 0 0 1 9.844-.13c2.382.25 4.678-.669 6.14-2.459a6.17 6.17 0 0 0 1.24-2.487c1.507.899 2.205 2.89 2.107 4.625-.043.767-.38 3.309-2.91 3.769h-.006c-.023.005-.044.014-.067.02-.023.007-.046.012-.068.02-.023.01-.044.022-.065.034l-.06.03c-.02.015-.039.032-.058.048-.016.013-.033.024-.047.04-.019.016-.033.037-.049.056-.013.016-.028.03-.04.047-.013.02-.024.042-.035.064-.01.018-.022.036-.03.055-.01.022-.016.046-.023.069-.007.02-.015.04-.02.06-.005.024-.006.049-.008.073-.003.022-.008.043-.008.066 0 .024.004.048.006.073.002.023.001.045.006.067v.005c.659 3.445.398 6.941-.775 10.389a.707.707 0 0 0 .674.934.712.712 0 0 0 .674-.48c1.179-3.466 1.493-6.981.938-10.458 1.975-.653 3.255-2.47 3.392-4.903C34.034 3.866 32.749.85 30.013.03M24.71 42.91h-.06a.71.71 0 0 1-.712-.707.71.71 0 0 1 .711-.708h.061a.71.71 0 0 1 .712.708.71.71 0 0 1-.712.707"/>
        <path fill="#5A3C2B" d="M32.519 35.67c-.198 1.174-.877 1.993-2.023 2.446.317-2.545.357-5.32.12-7.93 1.277 1.411 2.218 3.615 1.903 5.485m-27.878 0c-.318-1.892.649-4.125 1.949-5.535a37.797 37.797 0 0 0 .12 7.997v.001c-1.174-.449-1.869-1.274-2.069-2.463m25.72-7.58c-.141-.897-.311-1.74-.513-2.511-.181-.7-.39-1.361-.62-1.964a.713.713 0 0 0-.918-.408.705.705 0 0 0-.411.913c.211.552.404 1.16.571 1.81.214.819.391 1.725.531 2.695.48 3.312.458 7.076-.06 10.327 0 .004 0 .007-.002.013-.17 1.076-.793 2.508-4.21 2.53h-.015a2.157 2.157 0 0 1-2.121-2.448 2.162 2.162 0 0 1 2.135-1.843h.002a.704.704 0 0 0 .13-.014c.013-.001.026-.006.04-.009a.645.645 0 0 0 .202-.084l.033-.02a.8.8 0 0 0 .097-.08l.006-.007a.64.64 0 0 0 .074-.089l.022-.034a.653.653 0 0 0 .06-.122c.004-.011.01-.021.013-.033.206-.638.293-2.536.004-3.498a.712.712 0 0 0-1.364.402c.156.521.149 1.585.08 2.227a3.594 3.594 0 0 0-2.81 2.435 42.02 42.02 0 0 1-5.433 0 3.593 3.593 0 0 0-2.574-2.385v-.003c.19-1.32.337-3.667-.115-4.427a.714.714 0 0 0-.975-.248.704.704 0 0 0-.258.957c.235.548.041 3.488-.161 4.091l-.002.005a1.548 1.548 0 0 0-.02.064.104.104 0 0 0-.003.019l-.002.009-.002.011a.628.628 0 0 0-.01.194l.009.039a.627.627 0 0 0 .014.07c.003.012.004.026.008.039a.781.781 0 0 0 .024.06c.005.016.013.032.02.047a.43.43 0 0 0 .043.07l.003.004.011.018a.948.948 0 0 0 .07.078l.013.014a.71.71 0 0 0 .211.141l.014.006.04.016c.028.01.055.016.084.022l.008.001a.856.856 0 0 0 .137.013 2.163 2.163 0 0 1 2.159 2.147 2.156 2.156 0 0 1-2.139 2.145h-.02c-3.394-.023-4.03-1.438-4.207-2.51a.128.128 0 0 0-.005-.038c-.516-3.248-.537-7.009-.06-10.316.138-.962.318-1.871.534-2.7a.712.712 0 0 0-1.378-.353 25.96 25.96 0 0 0-.51 2.48c-2.392 1.556-4.062 5.143-3.607 7.845.326 1.934 1.644 3.267 3.724 3.787.56 2.118 2.408 3.2 5.505 3.22h.029a3.583 3.583 0 0 0 3.538-3.204 43.635 43.635 0 0 0 5.133 0c.18 1.784 1.698 3.19 3.543 3.203h.024c3.1-.018 4.95-1.103 5.506-3.228 2.056-.527 3.359-1.857 3.682-3.778.452-2.686-1.193-6.243-3.561-7.813"/>
        <path fill="#FEFEFE" d="M2.46 27.57c-.365 0-1.037-1.05-1.037-2.764 0-1.711.67-2.76 1.036-2.764h.004c.366.004 1.035 1.053 1.035 2.764 0 1.714-.671 2.764-1.037 2.764m8.29-10.528c0-.39-.163-.661-.556-.661H6.732c-.213 0-.424.014-.63.04-2.267.284-4.064 2.091-4.32 4.355C.733 21.252 0 22.826 0 24.806c0 2.381 1.058 4.178 2.46 4.178 1.403 0 2.461-1.797 2.461-4.178 0-1.932-.696-3.478-1.706-3.994a3.556 3.556 0 0 1 3.517-3.017h3.985c.392 0 .034-.363.034-.753"/>
        <path fill="#A78B76" d="M29.002 28.626c-.141-.97-.319-1.876-.532-2.694a18.667 18.667 0 0 0-.233-.821l-1.1.128-.526.986c.134.707 1.26 3.102 1.409 5.6.126 2.126.469 6.046-.747 7.596-1.029 1.31-2.895 1.572-4.213 1.286.394.477.99.784 1.654.789h.015c3.417-.022 4.04-1.454 4.21-2.53.002-.006.002-.01.002-.013.518-3.251.539-7.016.06-10.327"/>
        <path fill="#A78B76" d="M15.884 38.28c1.805.117 3.627.117 5.432 0a3.597 3.597 0 0 1 2.811-2.437c.07-.642.077-1.705-.08-2.226a.71.71 0 1 1 1.042-.81c-.13-1.145-.44-2.618-.44-2.618h-.607s-.284 2.04-.943 3.23c-1.186 2.141-2.822 3.393-7.743 3.832.229.309.409.654.528 1.028"/>
        <path fill="#BE1E2D" d="M29.675 22.263H7.528a.71.71 0 0 0-.712.707v2.078c0 .39.319.707.712.707h22.147a.71.71 0 0 0 .711-.707V22.97a.71.71 0 0 0-.711-.707"/>
        <path fill="#EFDFC9" d="M22.844 26.462h-8.485a6.2 6.2 0 0 1 .323-.707h7.837c.122.224.23.462.325.707"/>
        <path fill="#BE1E2D" d="M2.94 28.277c-.366 0-1.038-1.05-1.038-2.764 0-1.712.67-2.76 1.036-2.764h.004c.366.004 1.035 1.053 1.035 2.764 0 1.715-.671 2.764-1.037 2.764m8.256-11.189H7.21c-.213 0-.424.014-.63.04-2.267.285-4.064 2.091-4.32 4.355C1.21 21.96.48 23.533.48 25.513c0 2.382 1.058 4.178 2.46 4.178 1.403 0 2.461-1.796 2.461-4.178 0-1.931-.695-3.477-1.706-3.994a3.556 3.556 0 0 1 3.517-3.017h3.985a.708.708 0 0 0 .71-.707.71.71 0 0 0-.71-.707"/>
        <path fill="#FEFEFE" d="M29.675 21.556H7.528a.71.71 0 0 0-.712.707v.707a.71.71 0 0 1 .712-.707H29.675a.71.71 0 0 1 .711.707v-.707a.71.71 0 0 0-.711-.707M14.461 23.868a.71.71 0 0 1-.712.708.71.71 0 0 1-.711-.708c0-.39.318-.706.711-.706.394 0 .712.316.712.706M9.609 23.868a.71.71 0 0 1-.711.708.71.71 0 0 1-.712-.708c0-.39.319-.706.712-.706.393 0 .711.316.711.706M19.313 23.868a.71.71 0 0 1-.712.708.71.71 0 0 1-.711-.708c0-.39.318-.706.711-.706.393 0 .712.316.712.706M24.165 23.868a.71.71 0 0 1-.712.708.71.71 0 0 1-.711-.708c0-.39.318-.706.711-.706.393 0 .712.316.712.706M29.017 23.868a.71.71 0 0 1-.712.708.71.71 0 0 1-.712-.708c0-.39.319-.706.712-.706.393 0 .712.316.712.706"/>
        <path fill="#FEFEFE" d="M20.88 31.707c-3.161 0-5.732-2.556-5.732-5.697v-2.389a.71.71 0 0 1 .712-.707.71.71 0 0 1 .711.707v2.39c0 2.36 1.933 4.281 4.308 4.281 2.376 0 4.308-1.92 4.308-4.282v-8.214c0-.39.328-.49.72-.49.393 0 .704.1.704.49v8.214c0 3.141-2.571 5.697-5.732 5.697"/>
        <path fill="#BE1E2D" d="M21.591 31.707c-3.16 0-5.731-2.556-5.731-5.697v-2.389a.71.71 0 0 1 .711-.707.71.71 0 0 1 .712.707v2.39c0 2.36 1.932 4.281 4.308 4.281s4.308-1.92 4.308-4.282v-8.214c0-.39.32-.707.712-.707a.71.71 0 0 1 .711.707v8.214c0 3.141-2.57 5.697-5.73 5.697"/>
        <path fill="#5A3C2B" d="M27.273 15.198a.71.71 0 0 0-.712.707c0 .818-.749 1.436-1.742 1.436-.839 0-1.321-.357-1.988-.853-.794-.588-1.762-1.303-3.519-1.458v-1.307c.453.008.931-.117 1.26-.413.09-.081.464-.732.578-.955.337-.554-.348-1.55-1.634-1.726a6.837 6.837 0 0 0-1.831 0c-1.286.175-1.972 1.172-1.634 1.726.115.223.488.874.58.955.327.296.805.421 1.258.413v1.307c-1.757.155-2.724.87-3.518 1.458-.667.496-1.15.853-1.989.853-.993 0-1.742-.618-1.742-1.436a.71.71 0 0 0-.712-.707.71.71 0 0 0-.71.707c0 1.598 1.39 2.851 3.164 2.851 1.312 0 2.088-.577 2.84-1.134.838-.622 1.63-1.209 3.378-1.209 1.749 0 2.54.587 3.38 1.21.75.556 1.527 1.133 2.839 1.133 1.775 0 3.165-1.253 3.165-2.851a.71.71 0 0 0-.711-.707"/>
        <path fill="#EFDFC9" d="M24.709 37.206a2.16 2.16 0 0 0-2.137 2.145c0 .365.092.708.256 1.01.06-1.239 1.211-2.596 1.88-3.155"/>
        <path fill="#A78B76" d="M14.608 39.054a2.157 2.157 0 0 0-1.387-1.713c.716 1.546-.227 3.706-2.094 4.056.392.06.836.095 1.344.098h.02a2.155 2.155 0 0 0 2.117-2.44"/>
        <path fill="#EFDFC9" d="M29.337 14.234c-.024-1.1-.14-2.2-.349-3.294v-.003-.001c-.005-.024-.004-.046-.006-.068-.003-.024-.006-.049-.006-.073 0-.023.005-.044.008-.066.002-.024.003-.049.008-.073.005-.02.013-.04.02-.06.007-.024.013-.047.022-.069.009-.02.02-.037.031-.055.012-.022.022-.044.036-.064.011-.017.026-.031.039-.047.016-.02.03-.04.049-.057.014-.014.032-.026.047-.039.02-.016.038-.033.06-.047.017-.012.038-.021.058-.03.021-.013.042-.025.065-.035.021-.009.046-.013.068-.02.023-.007.044-.015.068-.02h.004c2.53-.46 2.868-3.001 2.911-3.77.098-1.734-.6-3.725-2.106-4.624-.076.316-.177.621-.3.918.683 1.826 2.077 4.277.172 6.049-.666.618-2.043.82-1.98 1.569.086.996-.132 2.627-.624 4.365.518-.077 1.096-.21 1.705-.386M17.685 10.63a6.828 6.828 0 0 1 1.831 0c.596.08 1.06.338 1.357.647-.054-.596-.606-1.31-1.48-1.463a4.643 4.643 0 0 0-1.584 0c-.875.153-1.427.867-1.48 1.463.295-.309.76-.567 1.356-.648"/>
        <path fill="#5A3C2B" d="M43.695 14.788a.765.765 0 0 1 .554-.24h7.832c.208 0 .393.08.554.24.162.16.243.35.243.568v2.859c0 .23-.081.425-.243.586a.765.765 0 0 1-.554.24h-1.265a.71.71 0 0 1-.537-.24.958.958 0 0 1-.26-.569l-.156-1.205h-1.82v7.61h.763c.208 0 .393.081.554.242.162.16.243.356.243.586v.844a.772.772 0 0 1-.243.567.763.763 0 0 1-.554.242h-4.54a.764.764 0 0 1-.553-.242.772.772 0 0 1-.243-.567v-.844c0-.23.08-.426.243-.586a.764.764 0 0 1 .554-.242h.486v-7.61h-.504a.763.763 0 0 1-.554-.242.773.773 0 0 1-.242-.568v-.844c0-.23.08-.424.242-.585M57.268 23.38a.839.839 0 0 1 .589-.223h.502c.22 0 .402.077.546.232.145.156.246.342.304.56l.294 1.137.658-1.396-3.222-6.663h-.555a.767.767 0 0 1-.554-.241.776.776 0 0 1-.243-.569v-.843c0-.23.081-.426.243-.586a.764.764 0 0 1 .554-.241h4.193c.231 0 .422.08.572.241.15.16.225.356.225.586v.843a.804.804 0 0 1-.225.569.75.75 0 0 1-.572.241h-.26l1.56 3.581 1.698-3.58h-.503a.766.766 0 0 1-.554-.242.775.775 0 0 1-.242-.569v-.843c0-.23.08-.426.242-.586a.763.763 0 0 1 .554-.241h4.054c.231 0 .422.08.572.241.15.16.225.356.225.586v.843a.808.808 0 0 1-.225.569.752.752 0 0 1-.572.241h-.381L62.76 24.88a6.587 6.587 0 0 1-.814 1.24 3.635 3.635 0 0 1-.875.757c-.306.184-.618.31-.936.379a4.67 4.67 0 0 1-.996.104 9.7 9.7 0 0 1-.77-.035 4.874 4.874 0 0 1-.772-.12 1.02 1.02 0 0 1-.52-.301.656.656 0 0 1-.172-.491l.12-2.463c0-.23.08-.419.243-.569M81.859 14.788c.15.16.225.355.225.585v.844a.803.803 0 0 1-.225.568.746.746 0 0 1-.571.242h-.347v7.61h.329c.231 0 .421.081.572.242.15.16.225.356.225.586v.844a.801.801 0 0 1-.225.567.748.748 0 0 1-.572.242h-4.21a.763.763 0 0 1-.554-.242.772.772 0 0 1-.243-.567v-.844c0-.23.08-.426.243-.586a.763.763 0 0 1 .554-.242h.589v-7.61h-1.923v2.686c0 .447-.01.916-.026 1.404-.017.487-.06.972-.13 1.455a7.87 7.87 0 0 1-.338 1.412c-.157.46-.373.884-.65 1.274-.439.62-.944 1.093-1.515 1.42a3.658 3.658 0 0 1-2.574.414 6.505 6.505 0 0 1-.744-.198.936.936 0 0 1-.442-.31c-.121-.15-.17-.357-.148-.62l.139-2.204c0-.207.08-.39.243-.551a.783.783 0 0 1 .572-.241h.744c.265 0 .45.068.554.206.104.138.197.322.278.551l.19.551a3.736 3.736 0 0 0 .607-1.576c.08-.567.122-1.162.122-1.782v-3.891h-.59a.766.766 0 0 1-.554-.242.773.773 0 0 1-.243-.568v-.844c0-.23.08-.424.243-.585a.768.768 0 0 1 .554-.24h9.27c.23 0 .421.08.57.24M91.635 24.302c.23-.224.347-.594.347-1.11 0-.494-.143-.845-.425-1.051-.283-.207-.644-.31-1.083-.31h-.693v2.807h.572c.623 0 1.051-.113 1.282-.336m-.918-9.514c.15.161.225.355.225.586v.843a.807.807 0 0 1-.225.568.75.75 0 0 1-.572.242h-.364v2.48h.849c.878 0 1.62.102 2.226.309.606.206 1.094.482 1.464.827.37.345.635.737.797 1.179.161.442.242.899.242 1.37 0 .366-.045.78-.138 1.24a3.02 3.02 0 0 1-.606 1.282c-.312.396-.77.73-1.378 1-.606.268-1.423.403-2.452.403h-4.799a.748.748 0 0 1-.57-.24.805.805 0 0 1-.227-.569v-.843c0-.23.076-.426.226-.587.15-.16.34-.24.571-.24h.468v-7.611h-.536a.748.748 0 0 1-.572-.242.803.803 0 0 1-.225-.568v-.843c0-.23.074-.425.225-.586a.748.748 0 0 1 .572-.242h4.227c.23 0 .421.08.572.242M103.474 17.027c0 .665-.014 1.34-.043 2.023a28.242 28.242 0 0 1-.156 2.015c-.075.66-.188 1.291-.337 1.894a8.43 8.43 0 0 1-.607 1.678h2.962v-7.61h-1.819zm-5.804 7.852a.766.766 0 0 1 .554-.242h.884c.312-.527.56-1.084.746-1.67.184-.586.323-1.196.415-1.833.093-.638.156-1.297.19-1.98a42.37 42.37 0 0 0 .052-2.127h-.363a.766.766 0 0 1-.555-.242.777.777 0 0 1-.243-.568v-.844c0-.23.082-.424.243-.585a.768.768 0 0 1 .555-.241h8.61c.208 0 .393.08.555.24a.797.797 0 0 1 .243.586v.844a.777.777 0 0 1-.243.568.766.766 0 0 1-.554.242h-.174v7.61h.676a.77.77 0 0 1 .555.242.797.797 0 0 1 .242.585v2.445a.76.76 0 0 1-.242.552.804.804 0 0 1-.59.24h-1.368c-.22 0-.41-.08-.572-.24a.756.756 0 0 1-.242-.552v-.791h-6.601v.791c0 .207-.081.39-.243.552a.801.801 0 0 1-.59.24h-1.368c-.22 0-.41-.08-.572-.24a.757.757 0 0 1-.243-.552v-2.445c0-.229.081-.424.243-.585zM116.833 23.872c.404.557 1.023.834 1.854.834.832 0 1.45-.277 1.854-.834.404-.557.606-1.381.606-2.472v-1.136c0-1.08-.202-1.9-.606-2.463-.405-.562-1.022-.843-1.854-.843-.831 0-1.45.278-1.854.834-.403.557-.606 1.381-.606 2.472V21.4c0 1.09.203 1.915.606 2.472m-.277 3.228a4.368 4.368 0 0 1-1.837-.93 4.86 4.86 0 0 1-1.048-1.145 5.022 5.022 0 0 1-.589-1.29 7.099 7.099 0 0 1-.26-1.413 17.813 17.813 0 0 1 0-2.962 7.08 7.08 0 0 1 .26-1.412 5.16 5.16 0 0 1 .59-1.3c.26-.414.609-.799 1.047-1.154a4.56 4.56 0 0 1 1.897-.938 9.374 9.374 0 0 1 4.141 0c.688.154 1.32.467 1.898.938.439.355.788.74 1.048 1.153.26.413.456.847.59 1.3.132.454.219.925.26 1.413a18.355 18.355 0 0 1 0 2.953c-.041.482-.128.95-.26 1.403a5.16 5.16 0 0 1-.59 1.3c-.26.414-.61.799-1.048 1.155a4.653 4.653 0 0 1-1.837.93 8.47 8.47 0 0 1-2.01.24h-.242a9.844 9.844 0 0 1-2.01-.24M127.572 14.788a.766.766 0 0 1 .555-.24h7.83c.208 0 .393.08.555.24.161.16.242.35.242.568v2.859c0 .23-.08.425-.242.586a.768.768 0 0 1-.555.24h-1.265a.71.71 0 0 1-.536-.24.953.953 0 0 1-.26-.569l-.156-1.205h-1.82v7.61h.763c.208 0 .392.081.554.242.162.16.243.356.243.586v.844a.775.775 0 0 1-.243.567.766.766 0 0 1-.554.242h-4.54a.764.764 0 0 1-.554-.242.772.772 0 0 1-.242-.567v-.844c0-.23.08-.426.242-.586a.764.764 0 0 1 .554-.242h.485v-7.61h-.501a.763.763 0 0 1-.555-.242.777.777 0 0 1-.243-.568v-.844c0-.23.082-.424.243-.585"/>
    </g>
</svg>
