<svg width="18" height="18" viewBox="0 0 18 18" fill="none" xmlns="http://www.w3.org/2000/svg">
<path d="M9 18C13.9706 18 18 13.9706 18 9C18 4.02944 13.9706 0 9 0C4.02944 0 0 4.02944 0 9C0 13.9706 4.02944 18 9 18Z" fill="#E86666"/>
<g clip-path="url(#clip0)">
<path d="M12.8363 12.1462L11.3447 10.6546C10.9331 10.2432 10.2638 10.2432 9.85279 10.6546C9.30386 11.2035 9.5107 10.9967 8.96175 11.5456C7.88412 11.4582 6.52617 9.9952 6.45162 9.05995C6.93537 8.57577 6.74618 8.76506 7.34299 8.16822C7.75434 7.75687 7.75434 7.08763 7.34299 6.67628L5.85138 5.18467C5.44003 4.77332 4.77115 4.77332 4.35977 5.18467L3.86262 5.6819C3.86262 5.6819 3.86215 5.68279 3.86175 5.68319C3.8614 5.68354 3.86088 5.68361 3.86055 5.68396C2.82703 6.71751 2.71094 8.32413 3.58483 9.50427C4.9113 11.294 6.564 12.9659 8.51709 14.4127C9.04896 14.8066 9.66773 14.9995 10.2796 14.9995C11.0247 14.9995 11.7599 14.7135 12.3158 14.1569C12.3318 14.1435 12.6379 13.8363 12.8363 13.6378C13.2498 13.2243 13.2476 12.5575 12.8363 12.1462ZM4.60842 5.93052L4.857 5.68192C4.99434 5.54458 5.21686 5.54458 5.3542 5.68192L6.84581 7.17353C6.98283 7.31088 6.98283 7.53372 6.84581 7.67109L6.59723 7.91967L4.60842 5.93052ZM12.3391 13.1403V13.1406L12.0905 13.3895L10.1014 11.4004L10.35 11.1518C10.488 11.0148 10.7109 11.0148 10.8475 11.1518L12.3391 12.6434C12.4054 12.71 12.4422 12.7983 12.4422 12.892C12.4421 12.9861 12.4057 13.0743 12.3391 13.1403Z" fill="white"/>
<path d="M13.252 4.74844C12.1247 3.62114 10.6238 3.00031 9.02544 3.00031C8.83109 3.00031 8.67383 3.15757 8.67383 3.35191C8.67383 3.54626 8.83109 3.70352 9.02544 3.70352C10.436 3.70352 11.7604 4.25119 12.7548 5.24559C13.7492 6.24 14.2969 7.56473 14.2969 8.97527C14.2969 9.16962 14.4541 9.32688 14.6485 9.32688C14.8428 9.32688 15.0001 9.16962 15.0001 8.97527C15.0001 7.37691 14.3793 5.87569 13.252 4.74844Z" fill="white"/>
<path d="M12.2576 5.74316C11.3954 4.88096 10.2475 4.4061 9.02544 4.4061C8.83109 4.4061 8.67383 4.56336 8.67383 4.75771C8.67383 4.95205 8.83109 5.10932 9.02544 5.10932C10.0597 5.10932 11.0311 5.51106 11.7604 6.24039C12.4897 6.96936 12.8915 7.94075 12.8915 8.97533C12.8915 9.16967 13.0487 9.32694 13.2431 9.32694C13.4374 9.32694 13.5947 9.16967 13.5947 8.97533C13.5947 7.75293 13.1198 6.60503 12.2576 5.74316Z" fill="white"/>
<path d="M11.2632 6.73769C10.6657 6.14024 9.87083 5.81094 9.02544 5.81094C8.83109 5.81094 8.67383 5.96821 8.67383 6.16255C8.67383 6.3569 8.83109 6.51416 9.02544 6.51416C9.683 6.51416 10.301 6.76996 10.766 7.23489C11.2305 7.69982 11.4867 8.31822 11.4867 8.97543C11.4867 9.16977 11.644 9.32704 11.8383 9.32704C12.0326 9.32704 12.1899 9.16977 12.1899 8.97543C12.1899 8.13039 11.861 7.33586 11.2632 6.73769Z" fill="white"/>
</g>
<defs>
<clipPath id="clip0">
<rect width="12" height="12" fill="white" transform="translate(3 3)"/>
</clipPath>
</defs>
</svg>
