<svg width="18" height="18" viewBox="0 0 18 18" fill="none" xmlns="http://www.w3.org/2000/svg">
<path d="M9 18C13.9706 18 18 13.9706 18 9C18 4.02944 13.9706 0 9 0C4.02944 0 0 4.02944 0 9C0 13.9706 4.02944 18 9 18Z" fill="#039BE5"/>
<path d="M4.1182 8.80494L12.7957 5.45919C13.1985 5.31369 13.5502 5.55744 13.4197 6.16644L13.4205 6.16569L11.943 13.1264C11.8335 13.6199 11.5402 13.7399 11.13 13.5074L8.87995 11.8492L7.7947 12.8947C7.6747 13.0147 7.57345 13.1159 7.34095 13.1159L7.5007 10.8262L11.6707 7.05894C11.8522 6.89919 11.6302 6.80919 11.391 6.96819L6.2377 10.2127L4.0162 9.51969C3.53395 9.36669 3.52345 9.03744 4.1182 8.80494Z" fill="white"/>
</svg>
