<svg width="19" height="20" viewBox="0 0 19 20" fill="none" xmlns="http://www.w3.org/2000/svg">
<path d="M11.0014 0H7.0009C3.14055 0 0 3.14054 0 7.00089V10.0013C0 12.7115 1.56305 15.171 4.00051 16.3279V19.6692C4.00051 19.9593 4.36344 20.111 4.56961 19.9049L7.4723 17.0022H11.0014C14.8617 17.0022 18.0023 13.8616 18.0023 10.0013V7.00089C18.0023 3.14054 14.8617 0 11.0014 0Z" fill="#665CAC"/>
<path d="M14.0344 12.4257L13.7347 10.8021C13.7099 10.6679 13.606 10.5624 13.4722 10.5356L11.1149 10.0642C11.0054 10.0424 10.8926 10.0766 10.8137 10.1554L9.85605 11.1131C8.24246 10.3901 7.34692 9.4926 6.55895 7.80975L7.51356 6.85518C7.59235 6.77636 7.62656 6.66331 7.60473 6.55401L7.13328 4.19667C7.10653 4.06296 7.00102 3.95898 6.86688 3.93421L5.24321 3.63452C5.19875 3.62636 5.15297 3.62722 5.10883 3.63726C4.68012 3.73464 4.28895 3.95066 3.97758 4.2621C3.43844 4.80124 3.23239 5.58796 3.38176 6.53721C3.63251 8.1312 4.41344 10.3495 5.85426 11.7961L5.87395 11.8156C7.31942 13.2554 9.53773 14.0364 11.1318 14.2872C11.3326 14.3188 11.526 14.3345 11.7115 14.3345C12.4027 14.3345 12.9818 14.1165 13.407 13.6913C13.7184 13.3799 13.9344 12.9888 14.0318 12.5601C14.0417 12.516 14.0426 12.4703 14.0344 12.4257Z" fill="white"/>
<path d="M7.18742 7.18125L7.51335 6.85527L7.5137 6.85492L7.18738 7.18121L7.18742 7.18125Z" fill="#E5E5E5"/>
<path d="M10.8136 10.1551L10.4845 10.4842L10.4846 10.4842L10.8137 10.1551L10.8136 10.1551Z" fill="#E5E5E5"/>
<path d="M9.66783 5.66727C9.48373 5.66727 9.33447 5.81652 9.33447 6.00063C9.33447 6.18473 9.48373 6.33398 9.66783 6.33398C10.4031 6.33398 11.0013 6.93219 11.0013 7.6675C11.0013 7.84914 11.1531 8.00086 11.3347 8.00086C11.5163 8.00086 11.6681 7.84914 11.6681 7.6675C11.6681 6.56453 10.7708 5.66727 9.66783 5.66727Z" fill="white"/>
<path d="M9.6679 4.33386C9.54458 4.33386 9.42013 4.3407 9.29794 4.35417C9.11494 4.37437 8.98294 4.5391 9.00314 4.72214C9.02333 4.90519 9.18841 5.03683 9.37111 5.01695C9.46908 5.00613 9.56892 5.00062 9.6679 5.00062C11.1385 5.00062 12.3349 6.19702 12.3349 7.66761C12.3349 7.76663 12.3294 7.86648 12.3186 7.96444C12.2986 8.14495 12.4328 8.31253 12.6134 8.33241C12.7939 8.35229 12.9614 8.21819 12.9813 8.03761C12.9948 7.91542 13.0016 7.79097 13.0016 7.66761C13.0016 5.82941 11.5061 4.33386 9.6679 4.33386Z" fill="white"/>
<path d="M9.66837 3.00034C9.54923 3.00034 9.42857 3.00487 9.30982 3.01389C9.12623 3.0278 8.98865 3.18795 9.00255 3.37151C9.01642 3.5551 9.17712 3.69268 9.36017 3.67877C9.46224 3.671 9.56595 3.66709 9.66837 3.66709C11.8743 3.66709 13.6689 5.4617 13.6689 7.6676C13.6689 7.9797 13.6329 8.29041 13.5618 8.59103C13.5211 8.7633 13.6272 8.94236 13.798 8.98916C13.9777 9.03837 14.1679 8.92568 14.2107 8.74439C14.2936 8.39357 14.3356 8.03131 14.3356 7.6676C14.3356 5.09404 12.2419 3.00034 9.66837 3.00034Z" fill="white"/>
</svg>
